<svg width="561" height="464" viewBox="0 0 561 464" fill="none" xmlns="http://www.w3.org/2000/svg">
<path d="M485 305C485 369.493 432.518 422 367.5 422C302.482 422 250 369.493 250 305C250 240.507 302.482 188 367.5 188C432.518 188 485 240.507 485 305Z" stroke="#8B5CF6" stroke-width="84"/>
<path d="M6 49L31.5 5H83.5L110 49L83.5 94H31.5L6 49Z" fill="#8B5CF6"/>
<path d="M101.5 108.5L130.5 61H187.5L214.5 105.5L238 122H299L324 108.5L353.5 61H411.5L439 108.5L411.5 155.5M31.5 5L6 49L31.5 94H83.5L110 49L83.5 5H31.5Z" stroke="#8B5CF6" stroke-width="10"/>
<path d="M101 103L129.5 152H189.5L211 167L239 215" stroke="#8B5CF6" stroke-width="10"/>
<path d="M480.5 119.5L455 75L480.5 30H532.5L559.5 75L532.5 119.5H480.5Z" fill="#8B5CF6" stroke="#8B5CF6"/>
<path d="M442.5 305.5C442.5 347.48 408.915 381.5 367.5 381.5C326.085 381.5 292.5 347.48 292.5 305.5C292.5 263.52 326.085 229.5 367.5 229.5C408.915 229.5 442.5 263.52 442.5 305.5Z" fill="white" fill-opacity="0.35" stroke="#8B5CF6"/>
</svg>
